<svg xmlns="http://www.w3.org/2000/svg" viewBox="0 0 400 400" width="400" height="400"><rect width="400" height="400" fill="#F6F1E7"/><rect x="0.00" y="0.00" width="12.12" height="12.12" fill="#16302B"/><rect x="12.12" y="0.00" width="12.12" height="12.12" fill="#16302B"/><rect x="24.24" y="0.00" width="12.12" height="12.12" fill="#16302B"/><rect x="36.36" y="0.00" width="12.12" height="12.12" fill="#16302B"/><rect x="48.48" y="0.00" width="12.12" height="12.12" fill="#16302B"/><rect x="60.61" y="0.00" width="12.12" height="12.12" fill="#16302B"/><rect x="72.73" y="0.00" width="12.12" height="12.12" fill="#16302B"/><rect x="96.97" y="0.00" width="12.12" height="12.12" fill="#16302B"/><rect x="109.09" y="0.00" width="12.12" height="12.12" fill="#16302B"/><rect x="121.21" y="0.00" width="12.12" height="12.12" fill="#16302B"/><rect x="145.45" y="0.00" width="12.12" height="12.12" fill="#16302B"/><rect x="157.58" y="0.00" width="12.12" height="12.12" fill="#16302B"/><rect x="169.70" y="0.00" width="12.12" height="12.12" fill="#16302B"/><rect x="206.06" y="0.00" width="12.12" height="12.12" fill="#16302B"/><rect x="218.18" y="0.00" width="12.12" height="12.12" fill="#16302B"/><rect x="254.55" y="0.00" width="12.12" height="12.12" fill="#16302B"/><rect x="315.15" y="0.00" width="12.12" height="12.12" fill="#16302B"/><rect x="327.27" y="0.00" width="12.12" height="12.12" fill="#16302B"/><rect x="339.39" y="0.00" width="12.12" height="12.12" fill="#16302B"/><rect x="351.52" y="0.00" width="12.12" height="12.12" fill="#16302B"/><rect x="363.64" y="0.00" width="12.12" height="12.12" fill="#16302B"/><rect x="375.76" y="0.00" width="12.12" height="12.12" fill="#16302B"/><rect x="387.88" y="0.00" width="12.12" height="12.12" fill="#16302B"/><rect x="0.00" y="12.12" width="12.12" height="12.12" fill="#16302B"/><rect x="72.73" y="12.12" width="12.12" height="12.12" fill="#16302B"/><rect x="109.09" y="12.12" width="12.12" height="12.12" fill="#16302B"/><rect x="133.33" y="12.12" width="12.12" height="12.12" fill="#16302B"/><rect x="145.45" y="12.12" width="12.12" height="12.12" fill="#16302B"/><rect x="193.94" y="12.12" width="12.12" height="12.12" fill="#16302B"/><rect x="242.42" y="12.12" width="12.12" height="12.12" fill="#16302B"/><rect x="266.67" y="12.12" width="12.12" height="12.12" fill="#16302B"/><rect x="315.15" y="12.12" width="12.12" height="12.12" fill="#16302B"/><rect x="387.88" y="12.12" width="12.12" height="12.12" fill="#16302B"/><rect x="0.00" y="24.24" width="12.12" height="12.12" fill="#16302B"/><rect x="24.24" y="24.24" width="12.12" height="12.12" fill="#16302B"/><rect x="36.36" y="24.24" width="12.12" height="12.12" fill="#16302B"/><rect x="48.48" y="24.24" width="12.12" height="12.12" fill="#16302B"/><rect x="72.73" y="24.24" width="12.12" height="12.12" fill="#16302B"/><rect x="96.97" y="24.24" width="12.12" height="12.12" fill="#16302B"/><rect x="109.09" y="24.24" width="12.12" height="12.12" fill="#16302B"/><rect x="121.21" y="24.24" width="12.12" height="12.12" fill="#16302B"/><rect x="145.45" y="24.24" width="12.12" height="12.12" fill="#16302B"/><rect x="157.58" y="24.24" width="12.12" height="12.12" fill="#16302B"/><rect x="181.82" y="24.24" width="12.12" height="12.12" fill="#16302B"/><rect x="193.94" y="24.24" width="12.12" height="12.12" fill="#16302B"/><rect x="206.06" y="24.24" width="12.12" height="12.12" fill="#16302B"/><rect x="254.55" y="24.24" width="12.12" height="12.12" fill="#16302B"/><rect x="290.91" y="24.24" width="12.12" height="12.12" fill="#16302B"/><rect x="315.15" y="24.24" width="12.12" height="12.12" fill="#16302B"/><rect x="339.39" y="24.24" width="12.12" height="12.12" fill="#16302B"/><rect x="351.52" y="24.24" width="12.12" height="12.12" fill="#16302B"/><rect x="363.64" y="24.24" width="12.12" height="12.12" fill="#16302B"/><rect x="387.88" y="24.24" width="12.12" height="12.12" fill="#16302B"/><rect x="0.00" y="36.36" width="12.12" height="12.12" fill="#16302B"/><rect x="24.24" y="36.36" width="12.12" height="12.12" fill="#16302B"/><rect x="36.36" y="36.36" width="12.12" height="12.12" fill="#16302B"/><rect x="48.48" y="36.36" width="12.12" height="12.12" fill="#16302B"/><rect x="72.73" y="36.36" width="12.12" height="12.12" fill="#16302B"/><rect x="121.21" y="36.36" width="12.12" height="12.12" fill="#16302B"/><rect x="133.33" y="36.36" width="12.12" height="12.12" fill="#16302B"/><rect x="145.45" y="36.36" width="12.12" height="12.12" fill="#16302B"/><rect x="181.82" y="36.36" width="12.12" height="12.12" fill="#16302B"/><rect x="230.30" y="36.36" width="12.12" height="12.12" fill="#16302B"/><rect x="290.91" y="36.36" width="12.12" height="12.12" fill="#16302B"/><rect x="315.15" y="36.36" width="12.12" height="12.12" fill="#16302B"/><rect x="339.39" y="36.36" width="12.12" height="12.12" fill="#16302B"/><rect x="351.52" y="36.36" width="12.12" height="12.12" fill="#16302B"/><rect x="363.64" y="36.36" width="12.12" height="12.12" fill="#16302B"/><rect x="387.88" y="36.36" width="12.12" height="12.12" fill="#16302B"/><rect x="0.00" y="48.48" width="12.12" height="12.12" fill="#16302B"/><rect x="24.24" y="48.48" width="12.12" height="12.12" fill="#16302B"/><rect x="36.36" y="48.48" width="12.12" height="12.12" fill="#16302B"/><rect x="48.48" y="48.48" width="12.12" height="12.12" fill="#16302B"/><rect x="72.73" y="48.48" width="12.12" height="12.12" fill="#16302B"/><rect x="121.21" y="48.48" width="12.12" height="12.12" fill="#16302B"/><rect x="133.33" y="48.48" width="12.12" height="12.12" fill="#16302B"/><rect x="157.58" y="48.48" width="12.12" height="12.12" fill="#16302B"/><rect x="181.82" y="48.48" width="12.12" height="12.12" fill="#16302B"/><rect x="230.30" y="48.48" width="12.12" height="12.12" fill="#16302B"/><rect x="266.67" y="48.48" width="12.12" height="12.12" fill="#16302B"/><rect x="315.15" y="48.48" width="12.12" height="12.12" fill="#16302B"/><rect x="339.39" y="48.48" width="12.12" height="12.12" fill="#16302B"/><rect x="351.52" y="48.48" width="12.12" height="12.12" fill="#16302B"/><rect x="363.64" y="48.48" width="12.12" height="12.12" fill="#16302B"/><rect x="387.88" y="48.48" width="12.12" height="12.12" fill="#16302B"/><rect x="0.00" y="60.61" width="12.12" height="12.12" fill="#16302B"/><rect x="72.73" y="60.61" width="12.12" height="12.12" fill="#16302B"/><rect x="96.97" y="60.61" width="12.12" height="12.12" fill="#16302B"/><rect x="109.09" y="60.61" width="12.12" height="12.12" fill="#16302B"/><rect x="133.33" y="60.61" width="12.12" height="12.12" fill="#16302B"/><rect x="181.82" y="60.61" width="12.12" height="12.12" fill="#16302B"/><rect x="218.18" y="60.61" width="12.12" height="12.12" fill="#16302B"/><rect x="230.30" y="60.61" width="12.12" height="12.12" fill="#16302B"/><rect x="315.15" y="60.61" width="12.12" height="12.12" fill="#16302B"/><rect x="387.88" y="60.61" width="12.12" height="12.12" fill="#16302B"/><rect x="0.00" y="72.73" width="12.12" height="12.12" fill="#16302B"/><rect x="12.12" y="72.73" width="12.12" height="12.12" fill="#16302B"/><rect x="24.24" y="72.73" width="12.12" height="12.12" fill="#16302B"/><rect x="36.36" y="72.73" width="12.12" height="12.12" fill="#16302B"/><rect x="48.48" y="72.73" width="12.12" height="12.12" fill="#16302B"/><rect x="60.61" y="72.73" width="12.12" height="12.12" fill="#16302B"/><rect x="72.73" y="72.73" width="12.12" height="12.12" fill="#16302B"/><rect x="96.97" y="72.73" width="12.12" height="12.12" fill="#16302B"/><rect x="121.21" y="72.73" width="12.12" height="12.12" fill="#16302B"/><rect x="145.45" y="72.73" width="12.12" height="12.12" fill="#16302B"/><rect x="169.70" y="72.73" width="12.12" height="12.12" fill="#16302B"/><rect x="193.94" y="72.73" width="12.12" height="12.12" fill="#16302B"/><rect x="218.18" y="72.73" width="12.12" height="12.12" fill="#16302B"/><rect x="242.42" y="72.73" width="12.12" height="12.12" fill="#16302B"/><rect x="266.67" y="72.73" width="12.12" height="12.12" fill="#16302B"/><rect x="290.91" y="72.73" width="12.12" height="12.12" fill="#16302B"/><rect x="315.15" y="72.73" width="12.12" height="12.12" fill="#16302B"/><rect x="327.27" y="72.73" width="12.12" height="12.12" fill="#16302B"/><rect x="339.39" y="72.73" width="12.12" height="12.12" fill="#16302B"/><rect x="351.52" y="72.73" width="12.12" height="12.12" fill="#16302B"/><rect x="363.64" y="72.73" width="12.12" height="12.12" fill="#16302B"/><rect x="375.76" y="72.73" width="12.12" height="12.12" fill="#16302B"/><rect x="387.88" y="72.73" width="12.12" height="12.12" fill="#16302B"/><rect x="109.09" y="84.85" width="12.12" height="12.12" fill="#16302B"/><rect x="121.21" y="84.85" width="12.12" height="12.12" fill="#16302B"/><rect x="169.70" y="84.85" width="12.12" height="12.12" fill="#16302B"/><rect x="181.82" y="84.85" width="12.12" height="12.12" fill="#16302B"/><rect x="193.94" y="84.85" width="12.12" height="12.12" fill="#16302B"/><rect x="218.18" y="84.85" width="12.12" height="12.12" fill="#16302B"/><rect x="230.30" y="84.85" width="12.12" height="12.12" fill="#16302B"/><rect x="242.42" y="84.85" width="12.12" height="12.12" fill="#16302B"/><rect x="266.67" y="84.85" width="12.12" height="12.12" fill="#16302B"/><rect x="278.79" y="84.85" width="12.12" height="12.12" fill="#16302B"/><rect x="290.91" y="84.85" width="12.12" height="12.12" fill="#16302B"/><rect x="0.00" y="96.97" width="12.12" height="12.12" fill="#16302B"/><rect x="24.24" y="96.97" width="12.12" height="12.12" fill="#16302B"/><rect x="72.73" y="96.97" width="12.12" height="12.12" fill="#16302B"/><rect x="84.85" y="96.97" width="12.12" height="12.12" fill="#16302B"/><rect x="121.21" y="96.97" width="12.12" height="12.12" fill="#16302B"/><rect x="145.45" y="96.97" width="12.12" height="12.12" fill="#16302B"/><rect x="193.94" y="96.97" width="12.12" height="12.12" fill="#16302B"/><rect x="218.18" y="96.97" width="12.12" height="12.12" fill="#16302B"/><rect x="242.42" y="96.97" width="12.12" height="12.12" fill="#16302B"/><rect x="278.79" y="96.97" width="12.12" height="12.12" fill="#16302B"/><rect x="327.27" y="96.97" width="12.12" height="12.12" fill="#16302B"/><rect x="363.64" y="96.97" width="12.12" height="12.12" fill="#16302B"/><rect x="387.88" y="96.97" width="12.12" height="12.12" fill="#16302B"/><rect x="0.00" y="109.09" width="12.12" height="12.12" fill="#16302B"/><rect x="12.12" y="109.09" width="12.12" height="12.12" fill="#16302B"/><rect x="60.61" y="109.09" width="12.12" height="12.12" fill="#16302B"/><rect x="84.85" y="109.09" width="12.12" height="12.12" fill="#16302B"/><rect x="96.97" y="109.09" width="12.12" height="12.12" fill="#16302B"/><rect x="109.09" y="109.09" width="12.12" height="12.12" fill="#16302B"/><rect x="145.45" y="109.09" width="12.12" height="12.12" fill="#16302B"/><rect x="157.58" y="109.09" width="12.12" height="12.12" fill="#16302B"/><rect x="181.82" y="109.09" width="12.12" height="12.12" fill="#16302B"/><rect x="193.94" y="109.09" width="12.12" height="12.12" fill="#16302B"/><rect x="206.06" y="109.09" width="12.12" height="12.12" fill="#16302B"/><rect x="230.30" y="109.09" width="12.12" height="12.12" fill="#16302B"/><rect x="242.42" y="109.09" width="12.12" height="12.12" fill="#16302B"/><rect x="254.55" y="109.09" width="12.12" height="12.12" fill="#16302B"/><rect x="278.79" y="109.09" width="12.12" height="12.12" fill="#16302B"/><rect x="290.91" y="109.09" width="12.12" height="12.12" fill="#16302B"/><rect x="315.15" y="109.09" width="12.12" height="12.12" fill="#16302B"/><rect x="351.52" y="109.09" width="12.12" height="12.12" fill="#16302B"/><rect x="375.76" y="109.09" width="12.12" height="12.12" fill="#16302B"/><rect x="387.88" y="109.09" width="12.12" height="12.12" fill="#16302B"/><rect x="12.12" y="121.21" width="12.12" height="12.12" fill="#16302B"/><rect x="48.48" y="121.21" width="12.12" height="12.12" fill="#16302B"/><rect x="72.73" y="121.21" width="12.12" height="12.12" fill="#16302B"/><rect x="96.97" y="121.21" width="12.12" height="12.12" fill="#16302B"/><rect x="121.21" y="121.21" width="12.12" height="12.12" fill="#16302B"/><rect x="181.82" y="121.21" width="12.12" height="12.12" fill="#16302B"/><rect x="193.94" y="121.21" width="12.12" height="12.12" fill="#16302B"/><rect x="230.30" y="121.21" width="12.12" height="12.12" fill="#16302B"/><rect x="278.79" y="121.21" width="12.12" height="12.12" fill="#16302B"/><rect x="303.03" y="121.21" width="12.12" height="12.12" fill="#16302B"/><rect x="315.15" y="121.21" width="12.12" height="12.12" fill="#16302B"/><rect x="351.52" y="121.21" width="12.12" height="12.12" fill="#16302B"/><rect x="363.64" y="121.21" width="12.12" height="12.12" fill="#16302B"/><rect x="387.88" y="121.21" width="12.12" height="12.12" fill="#16302B"/><rect x="0.00" y="133.33" width="12.12" height="12.12" fill="#16302B"/><rect x="24.24" y="133.33" width="12.12" height="12.12" fill="#16302B"/><rect x="36.36" y="133.33" width="12.12" height="12.12" fill="#16302B"/><rect x="48.48" y="133.33" width="12.12" height="12.12" fill="#16302B"/><rect x="60.61" y="133.33" width="12.12" height="12.12" fill="#16302B"/><rect x="84.85" y="133.33" width="12.12" height="12.12" fill="#16302B"/><rect x="109.09" y="133.33" width="12.12" height="12.12" fill="#16302B"/><rect x="157.58" y="133.33" width="12.12" height="12.12" fill="#16302B"/><rect x="181.82" y="133.33" width="12.12" height="12.12" fill="#16302B"/><rect x="206.06" y="133.33" width="12.12" height="12.12" fill="#16302B"/><rect x="230.30" y="133.33" width="12.12" height="12.12" fill="#16302B"/><rect x="254.55" y="133.33" width="12.12" height="12.12" fill="#16302B"/><rect x="278.79" y="133.33" width="12.12" height="12.12" fill="#16302B"/><rect x="290.91" y="133.33" width="12.12" height="12.12" fill="#16302B"/><rect x="303.03" y="133.33" width="12.12" height="12.12" fill="#16302B"/><rect x="315.15" y="133.33" width="12.12" height="12.12" fill="#16302B"/><rect x="327.27" y="133.33" width="12.12" height="12.12" fill="#16302B"/><rect x="339.39" y="133.33" width="12.12" height="12.12" fill="#16302B"/><rect x="351.52" y="133.33" width="12.12" height="12.12" fill="#16302B"/><rect x="375.76" y="133.33" width="12.12" height="12.12" fill="#16302B"/><rect x="387.88" y="133.33" width="12.12" height="12.12" fill="#16302B"/><rect x="0.00" y="145.45" width="12.12" height="12.12" fill="#16302B"/><rect x="36.36" y="145.45" width="12.12" height="12.12" fill="#16302B"/><rect x="72.73" y="145.45" width="12.12" height="12.12" fill="#16302B"/><rect x="96.97" y="145.45" width="12.12" height="12.12" fill="#16302B"/><rect x="121.21" y="145.45" width="12.12" height="12.12" fill="#16302B"/><rect x="133.33" y="145.45" width="12.12" height="12.12" fill="#16302B"/><rect x="145.45" y="145.45" width="12.12" height="12.12" fill="#16302B"/><rect x="157.58" y="145.45" width="12.12" height="12.12" fill="#16302B"/><rect x="181.82" y="145.45" width="12.12" height="12.12" fill="#16302B"/><rect x="206.06" y="145.45" width="12.12" height="12.12" fill="#16302B"/><rect x="230.30" y="145.45" width="12.12" height="12.12" fill="#16302B"/><rect x="254.55" y="145.45" width="12.12" height="12.12" fill="#16302B"/><rect x="290.91" y="145.45" width="12.12" height="12.12" fill="#16302B"/><rect x="315.15" y="145.45" width="12.12" height="12.12" fill="#16302B"/><rect x="327.27" y="145.45" width="12.12" height="12.12" fill="#16302B"/><rect x="0.00" y="157.58" width="12.12" height="12.12" fill="#16302B"/><rect x="12.12" y="157.58" width="12.12" height="12.12" fill="#16302B"/><rect x="24.24" y="157.58" width="12.12" height="12.12" fill="#16302B"/><rect x="48.48" y="157.58" width="12.12" height="12.12" fill="#16302B"/><rect x="60.61" y="157.58" width="12.12" height="12.12" fill="#16302B"/><rect x="84.85" y="157.58" width="12.12" height="12.12" fill="#16302B"/><rect x="109.09" y="157.58" width="12.12" height="12.12" fill="#16302B"/><rect x="121.21" y="157.58" width="12.12" height="12.12" fill="#16302B"/><rect x="145.45" y="157.58" width="12.12" height="12.12" fill="#16302B"/><rect x="206.06" y="157.58" width="12.12" height="12.12" fill="#16302B"/><rect x="278.79" y="157.58" width="12.12" height="12.12" fill="#16302B"/><rect x="290.91" y="157.58" width="12.12" height="12.12" fill="#16302B"/><rect x="315.15" y="157.58" width="12.12" height="12.12" fill="#16302B"/><rect x="327.27" y="157.58" width="12.12" height="12.12" fill="#16302B"/><rect x="375.76" y="157.58" width="12.12" height="12.12" fill="#16302B"/><rect x="387.88" y="157.58" width="12.12" height="12.12" fill="#16302B"/><rect x="12.12" y="169.70" width="12.12" height="12.12" fill="#16302B"/><rect x="24.24" y="169.70" width="12.12" height="12.12" fill="#16302B"/><rect x="36.36" y="169.70" width="12.12" height="12.12" fill="#16302B"/><rect x="60.61" y="169.70" width="12.12" height="12.12" fill="#16302B"/><rect x="72.73" y="169.70" width="12.12" height="12.12" fill="#16302B"/><rect x="96.97" y="169.70" width="12.12" height="12.12" fill="#16302B"/><rect x="109.09" y="169.70" width="12.12" height="12.12" fill="#16302B"/><rect x="121.21" y="169.70" width="12.12" height="12.12" fill="#16302B"/><rect x="133.33" y="169.70" width="12.12" height="12.12" fill="#16302B"/><rect x="157.58" y="169.70" width="12.12" height="12.12" fill="#16302B"/><rect x="169.70" y="169.70" width="12.12" height="12.12" fill="#16302B"/><rect x="181.82" y="169.70" width="12.12" height="12.12" fill="#16302B"/><rect x="230.30" y="169.70" width="12.12" height="12.12" fill="#16302B"/><rect x="278.79" y="169.70" width="12.12" height="12.12" fill="#16302B"/><rect x="339.39" y="169.70" width="12.12" height="12.12" fill="#16302B"/><rect x="351.52" y="169.70" width="12.12" height="12.12" fill="#16302B"/><rect x="387.88" y="169.70" width="12.12" height="12.12" fill="#16302B"/><rect x="0.00" y="181.82" width="12.12" height="12.12" fill="#16302B"/><rect x="48.48" y="181.82" width="12.12" height="12.12" fill="#16302B"/><rect x="60.61" y="181.82" width="12.12" height="12.12" fill="#16302B"/><rect x="84.85" y="181.82" width="12.12" height="12.12" fill="#16302B"/><rect x="109.09" y="181.82" width="12.12" height="12.12" fill="#16302B"/><rect x="121.21" y="181.82" width="12.12" height="12.12" fill="#16302B"/><rect x="133.33" y="181.82" width="12.12" height="12.12" fill="#16302B"/><rect x="218.18" y="181.82" width="12.12" height="12.12" fill="#16302B"/><rect x="266.67" y="181.82" width="12.12" height="12.12" fill="#16302B"/><rect x="303.03" y="181.82" width="12.12" height="12.12" fill="#16302B"/><rect x="315.15" y="181.82" width="12.12" height="12.12" fill="#16302B"/><rect x="327.27" y="181.82" width="12.12" height="12.12" fill="#16302B"/><rect x="339.39" y="181.82" width="12.12" height="12.12" fill="#16302B"/><rect x="351.52" y="181.82" width="12.12" height="12.12" fill="#16302B"/><rect x="0.00" y="193.94" width="12.12" height="12.12" fill="#16302B"/><rect x="24.24" y="193.94" width="12.12" height="12.12" fill="#16302B"/><rect x="36.36" y="193.94" width="12.12" height="12.12" fill="#16302B"/><rect x="60.61" y="193.94" width="12.12" height="12.12" fill="#16302B"/><rect x="72.73" y="193.94" width="12.12" height="12.12" fill="#16302B"/><rect x="84.85" y="193.94" width="12.12" height="12.12" fill="#16302B"/><rect x="96.97" y="193.94" width="12.12" height="12.12" fill="#16302B"/><rect x="145.45" y="193.94" width="12.12" height="12.12" fill="#16302B"/><rect x="157.58" y="193.94" width="12.12" height="12.12" fill="#16302B"/><rect x="181.82" y="193.94" width="12.12" height="12.12" fill="#16302B"/><rect x="230.30" y="193.94" width="12.12" height="12.12" fill="#16302B"/><rect x="242.42" y="193.94" width="12.12" height="12.12" fill="#16302B"/><rect x="278.79" y="193.94" width="12.12" height="12.12" fill="#16302B"/><rect x="290.91" y="193.94" width="12.12" height="12.12" fill="#16302B"/><rect x="315.15" y="193.94" width="12.12" height="12.12" fill="#16302B"/><rect x="327.27" y="193.94" width="12.12" height="12.12" fill="#16302B"/><rect x="375.76" y="193.94" width="12.12" height="12.12" fill="#16302B"/><rect x="12.12" y="206.06" width="12.12" height="12.12" fill="#16302B"/><rect x="24.24" y="206.06" width="12.12" height="12.12" fill="#16302B"/><rect x="36.36" y="206.06" width="12.12" height="12.12" fill="#16302B"/><rect x="84.85" y="206.06" width="12.12" height="12.12" fill="#16302B"/><rect x="109.09" y="206.06" width="12.12" height="12.12" fill="#16302B"/><rect x="145.45" y="206.06" width="12.12" height="12.12" fill="#16302B"/><rect x="169.70" y="206.06" width="12.12" height="12.12" fill="#16302B"/><rect x="181.82" y="206.06" width="12.12" height="12.12" fill="#16302B"/><rect x="193.94" y="206.06" width="12.12" height="12.12" fill="#16302B"/><rect x="230.30" y="206.06" width="12.12" height="12.12" fill="#16302B"/><rect x="242.42" y="206.06" width="12.12" height="12.12" fill="#16302B"/><rect x="278.79" y="206.06" width="12.12" height="12.12" fill="#16302B"/><rect x="290.91" y="206.06" width="12.12" height="12.12" fill="#16302B"/><rect x="315.15" y="206.06" width="12.12" height="12.12" fill="#16302B"/><rect x="351.52" y="206.06" width="12.12" height="12.12" fill="#16302B"/><rect x="387.88" y="206.06" width="12.12" height="12.12" fill="#16302B"/><rect x="12.12" y="218.18" width="12.12" height="12.12" fill="#16302B"/><rect x="60.61" y="218.18" width="12.12" height="12.12" fill="#16302B"/><rect x="72.73" y="218.18" width="12.12" height="12.12" fill="#16302B"/><rect x="84.85" y="218.18" width="12.12" height="12.12" fill="#16302B"/><rect x="96.97" y="218.18" width="12.12" height="12.12" fill="#16302B"/><rect x="145.45" y="218.18" width="12.12" height="12.12" fill="#16302B"/><rect x="157.58" y="218.18" width="12.12" height="12.12" fill="#16302B"/><rect x="169.70" y="218.18" width="12.12" height="12.12" fill="#16302B"/><rect x="181.82" y="218.18" width="12.12" height="12.12" fill="#16302B"/><rect x="206.06" y="218.18" width="12.12" height="12.12" fill="#16302B"/><rect x="218.18" y="218.18" width="12.12" height="12.12" fill="#16302B"/><rect x="230.30" y="218.18" width="12.12" height="12.12" fill="#16302B"/><rect x="242.42" y="218.18" width="12.12" height="12.12" fill="#16302B"/><rect x="254.55" y="218.18" width="12.12" height="12.12" fill="#16302B"/><rect x="266.67" y="218.18" width="12.12" height="12.12" fill="#16302B"/><rect x="278.79" y="218.18" width="12.12" height="12.12" fill="#16302B"/><rect x="303.03" y="218.18" width="12.12" height="12.12" fill="#16302B"/><rect x="327.27" y="218.18" width="12.12" height="12.12" fill="#16302B"/><rect x="351.52" y="218.18" width="12.12" height="12.12" fill="#16302B"/><rect x="363.64" y="218.18" width="12.12" height="12.12" fill="#16302B"/><rect x="375.76" y="218.18" width="12.12" height="12.12" fill="#16302B"/><rect x="387.88" y="218.18" width="12.12" height="12.12" fill="#16302B"/><rect x="0.00" y="230.30" width="12.12" height="12.12" fill="#16302B"/><rect x="12.12" y="230.30" width="12.12" height="12.12" fill="#16302B"/><rect x="24.24" y="230.30" width="12.12" height="12.12" fill="#16302B"/><rect x="60.61" y="230.30" width="12.12" height="12.12" fill="#16302B"/><rect x="96.97" y="230.30" width="12.12" height="12.12" fill="#16302B"/><rect x="109.09" y="230.30" width="12.12" height="12.12" fill="#16302B"/><rect x="133.33" y="230.30" width="12.12" height="12.12" fill="#16302B"/><rect x="157.58" y="230.30" width="12.12" height="12.12" fill="#16302B"/><rect x="181.82" y="230.30" width="12.12" height="12.12" fill="#16302B"/><rect x="193.94" y="230.30" width="12.12" height="12.12" fill="#16302B"/><rect x="218.18" y="230.30" width="12.12" height="12.12" fill="#16302B"/><rect x="230.30" y="230.30" width="12.12" height="12.12" fill="#16302B"/><rect x="242.42" y="230.30" width="12.12" height="12.12" fill="#16302B"/><rect x="266.67" y="230.30" width="12.12" height="12.12" fill="#16302B"/><rect x="290.91" y="230.30" width="12.12" height="12.12" fill="#16302B"/><rect x="339.39" y="230.30" width="12.12" height="12.12" fill="#16302B"/><rect x="351.52" y="230.30" width="12.12" height="12.12" fill="#16302B"/><rect x="375.76" y="230.30" width="12.12" height="12.12" fill="#16302B"/><rect x="387.88" y="230.30" width="12.12" height="12.12" fill="#16302B"/><rect x="12.12" y="242.42" width="12.12" height="12.12" fill="#16302B"/><rect x="48.48" y="242.42" width="12.12" height="12.12" fill="#16302B"/><rect x="72.73" y="242.42" width="12.12" height="12.12" fill="#16302B"/><rect x="84.85" y="242.42" width="12.12" height="12.12" fill="#16302B"/><rect x="96.97" y="242.42" width="12.12" height="12.12" fill="#16302B"/><rect x="121.21" y="242.42" width="12.12" height="12.12" fill="#16302B"/><rect x="145.45" y="242.42" width="12.12" height="12.12" fill="#16302B"/><rect x="193.94" y="242.42" width="12.12" height="12.12" fill="#16302B"/><rect x="206.06" y="242.42" width="12.12" height="12.12" fill="#16302B"/><rect x="218.18" y="242.42" width="12.12" height="12.12" fill="#16302B"/><rect x="242.42" y="242.42" width="12.12" height="12.12" fill="#16302B"/><rect x="254.55" y="242.42" width="12.12" height="12.12" fill="#16302B"/><rect x="266.67" y="242.42" width="12.12" height="12.12" fill="#16302B"/><rect x="290.91" y="242.42" width="12.12" height="12.12" fill="#16302B"/><rect x="315.15" y="242.42" width="12.12" height="12.12" fill="#16302B"/><rect x="327.27" y="242.42" width="12.12" height="12.12" fill="#16302B"/><rect x="375.76" y="242.42" width="12.12" height="12.12" fill="#16302B"/><rect x="387.88" y="242.42" width="12.12" height="12.12" fill="#16302B"/><rect x="12.12" y="254.55" width="12.12" height="12.12" fill="#16302B"/><rect x="24.24" y="254.55" width="12.12" height="12.12" fill="#16302B"/><rect x="48.48" y="254.55" width="12.12" height="12.12" fill="#16302B"/><rect x="96.97" y="254.55" width="12.12" height="12.12" fill="#16302B"/><rect x="133.33" y="254.55" width="12.12" height="12.12" fill="#16302B"/><rect x="145.45" y="254.55" width="12.12" height="12.12" fill="#16302B"/><rect x="157.58" y="254.55" width="12.12" height="12.12" fill="#16302B"/><rect x="169.70" y="254.55" width="12.12" height="12.12" fill="#16302B"/><rect x="193.94" y="254.55" width="12.12" height="12.12" fill="#16302B"/><rect x="206.06" y="254.55" width="12.12" height="12.12" fill="#16302B"/><rect x="218.18" y="254.55" width="12.12" height="12.12" fill="#16302B"/><rect x="242.42" y="254.55" width="12.12" height="12.12" fill="#16302B"/><rect x="254.55" y="254.55" width="12.12" height="12.12" fill="#16302B"/><rect x="266.67" y="254.55" width="12.12" height="12.12" fill="#16302B"/><rect x="278.79" y="254.55" width="12.12" height="12.12" fill="#16302B"/><rect x="290.91" y="254.55" width="12.12" height="12.12" fill="#16302B"/><rect x="315.15" y="254.55" width="12.12" height="12.12" fill="#16302B"/><rect x="351.52" y="254.55" width="12.12" height="12.12" fill="#16302B"/><rect x="387.88" y="254.55" width="12.12" height="12.12" fill="#16302B"/><rect x="0.00" y="266.67" width="12.12" height="12.12" fill="#16302B"/><rect x="12.12" y="266.67" width="12.12" height="12.12" fill="#16302B"/><rect x="24.24" y="266.67" width="12.12" height="12.12" fill="#16302B"/><rect x="36.36" y="266.67" width="12.12" height="12.12" fill="#16302B"/><rect x="48.48" y="266.67" width="12.12" height="12.12" fill="#16302B"/><rect x="60.61" y="266.67" width="12.12" height="12.12" fill="#16302B"/><rect x="72.73" y="266.67" width="12.12" height="12.12" fill="#16302B"/><rect x="84.85" y="266.67" width="12.12" height="12.12" fill="#16302B"/><rect x="96.97" y="266.67" width="12.12" height="12.12" fill="#16302B"/><rect x="109.09" y="266.67" width="12.12" height="12.12" fill="#16302B"/><rect x="133.33" y="266.67" width="12.12" height="12.12" fill="#16302B"/><rect x="193.94" y="266.67" width="12.12" height="12.12" fill="#16302B"/><rect x="206.06" y="266.67" width="12.12" height="12.12" fill="#16302B"/><rect x="242.42" y="266.67" width="12.12" height="12.12" fill="#16302B"/><rect x="254.55" y="266.67" width="12.12" height="12.12" fill="#16302B"/><rect x="278.79" y="266.67" width="12.12" height="12.12" fill="#16302B"/><rect x="363.64" y="266.67" width="12.12" height="12.12" fill="#16302B"/><rect x="387.88" y="266.67" width="12.12" height="12.12" fill="#16302B"/><rect x="36.36" y="278.79" width="12.12" height="12.12" fill="#16302B"/><rect x="48.48" y="278.79" width="12.12" height="12.12" fill="#16302B"/><rect x="109.09" y="278.79" width="12.12" height="12.12" fill="#16302B"/><rect x="133.33" y="278.79" width="12.12" height="12.12" fill="#16302B"/><rect x="181.82" y="278.79" width="12.12" height="12.12" fill="#16302B"/><rect x="193.94" y="278.79" width="12.12" height="12.12" fill="#16302B"/><rect x="218.18" y="278.79" width="12.12" height="12.12" fill="#16302B"/><rect x="230.30" y="278.79" width="12.12" height="12.12" fill="#16302B"/><rect x="242.42" y="278.79" width="12.12" height="12.12" fill="#16302B"/><rect x="278.79" y="278.79" width="12.12" height="12.12" fill="#16302B"/><rect x="303.03" y="278.79" width="12.12" height="12.12" fill="#16302B"/><rect x="327.27" y="278.79" width="12.12" height="12.12" fill="#16302B"/><rect x="339.39" y="278.79" width="12.12" height="12.12" fill="#16302B"/><rect x="351.52" y="278.79" width="12.12" height="12.12" fill="#16302B"/><rect x="375.76" y="278.79" width="12.12" height="12.12" fill="#16302B"/><rect x="0.00" y="290.91" width="12.12" height="12.12" fill="#16302B"/><rect x="12.12" y="290.91" width="12.12" height="12.12" fill="#16302B"/><rect x="48.48" y="290.91" width="12.12" height="12.12" fill="#16302B"/><rect x="60.61" y="290.91" width="12.12" height="12.12" fill="#16302B"/><rect x="72.73" y="290.91" width="12.12" height="12.12" fill="#16302B"/><rect x="84.85" y="290.91" width="12.12" height="12.12" fill="#16302B"/><rect x="121.21" y="290.91" width="12.12" height="12.12" fill="#16302B"/><rect x="169.70" y="290.91" width="12.12" height="12.12" fill="#16302B"/><rect x="193.94" y="290.91" width="12.12" height="12.12" fill="#16302B"/><rect x="242.42" y="290.91" width="12.12" height="12.12" fill="#16302B"/><rect x="290.91" y="290.91" width="12.12" height="12.12" fill="#16302B"/><rect x="303.03" y="290.91" width="12.12" height="12.12" fill="#16302B"/><rect x="315.15" y="290.91" width="12.12" height="12.12" fill="#16302B"/><rect x="327.27" y="290.91" width="12.12" height="12.12" fill="#16302B"/><rect x="339.39" y="290.91" width="12.12" height="12.12" fill="#16302B"/><rect x="351.52" y="290.91" width="12.12" height="12.12" fill="#16302B"/><rect x="96.97" y="303.03" width="12.12" height="12.12" fill="#16302B"/><rect x="133.33" y="303.03" width="12.12" height="12.12" fill="#16302B"/><rect x="169.70" y="303.03" width="12.12" height="12.12" fill="#16302B"/><rect x="181.82" y="303.03" width="12.12" height="12.12" fill="#16302B"/><rect x="193.94" y="303.03" width="12.12" height="12.12" fill="#16302B"/><rect x="206.06" y="303.03" width="12.12" height="12.12" fill="#16302B"/><rect x="230.30" y="303.03" width="12.12" height="12.12" fill="#16302B"/><rect x="254.55" y="303.03" width="12.12" height="12.12" fill="#16302B"/><rect x="290.91" y="303.03" width="12.12" height="12.12" fill="#16302B"/><rect x="339.39" y="303.03" width="12.12" height="12.12" fill="#16302B"/><rect x="375.76" y="303.03" width="12.12" height="12.12" fill="#16302B"/><rect x="387.88" y="303.03" width="12.12" height="12.12" fill="#16302B"/><rect x="0.00" y="315.15" width="12.12" height="12.12" fill="#16302B"/><rect x="12.12" y="315.15" width="12.12" height="12.12" fill="#16302B"/><rect x="24.24" y="315.15" width="12.12" height="12.12" fill="#16302B"/><rect x="36.36" y="315.15" width="12.12" height="12.12" fill="#16302B"/><rect x="48.48" y="315.15" width="12.12" height="12.12" fill="#16302B"/><rect x="60.61" y="315.15" width="12.12" height="12.12" fill="#16302B"/><rect x="72.73" y="315.15" width="12.12" height="12.12" fill="#16302B"/><rect x="96.97" y="315.15" width="12.12" height="12.12" fill="#16302B"/><rect x="109.09" y="315.15" width="12.12" height="12.12" fill="#16302B"/><rect x="121.21" y="315.15" width="12.12" height="12.12" fill="#16302B"/><rect x="133.33" y="315.15" width="12.12" height="12.12" fill="#16302B"/><rect x="145.45" y="315.15" width="12.12" height="12.12" fill="#16302B"/><rect x="181.82" y="315.15" width="12.12" height="12.12" fill="#16302B"/><rect x="230.30" y="315.15" width="12.12" height="12.12" fill="#16302B"/><rect x="242.42" y="315.15" width="12.12" height="12.12" fill="#16302B"/><rect x="290.91" y="315.15" width="12.12" height="12.12" fill="#16302B"/><rect x="315.15" y="315.15" width="12.12" height="12.12" fill="#16302B"/><rect x="339.39" y="315.15" width="12.12" height="12.12" fill="#16302B"/><rect x="351.52" y="315.15" width="12.12" height="12.12" fill="#16302B"/><rect x="363.64" y="315.15" width="12.12" height="12.12" fill="#16302B"/><rect x="387.88" y="315.15" width="12.12" height="12.12" fill="#16302B"/><rect x="0.00" y="327.27" width="12.12" height="12.12" fill="#16302B"/><rect x="72.73" y="327.27" width="12.12" height="12.12" fill="#16302B"/><rect x="109.09" y="327.27" width="12.12" height="12.12" fill="#16302B"/><rect x="145.45" y="327.27" width="12.12" height="12.12" fill="#16302B"/><rect x="193.94" y="327.27" width="12.12" height="12.12" fill="#16302B"/><rect x="206.06" y="327.27" width="12.12" height="12.12" fill="#16302B"/><rect x="230.30" y="327.27" width="12.12" height="12.12" fill="#16302B"/><rect x="242.42" y="327.27" width="12.12" height="12.12" fill="#16302B"/><rect x="254.55" y="327.27" width="12.12" height="12.12" fill="#16302B"/><rect x="278.79" y="327.27" width="12.12" height="12.12" fill="#16302B"/><rect x="290.91" y="327.27" width="12.12" height="12.12" fill="#16302B"/><rect x="339.39" y="327.27" width="12.12" height="12.12" fill="#16302B"/><rect x="351.52" y="327.27" width="12.12" height="12.12" fill="#16302B"/><rect x="0.00" y="339.39" width="12.12" height="12.12" fill="#16302B"/><rect x="24.24" y="339.39" width="12.12" height="12.12" fill="#16302B"/><rect x="36.36" y="339.39" width="12.12" height="12.12" fill="#16302B"/><rect x="48.48" y="339.39" width="12.12" height="12.12" fill="#16302B"/><rect x="72.73" y="339.39" width="12.12" height="12.12" fill="#16302B"/><rect x="133.33" y="339.39" width="12.12" height="12.12" fill="#16302B"/><rect x="145.45" y="339.39" width="12.12" height="12.12" fill="#16302B"/><rect x="157.58" y="339.39" width="12.12" height="12.12" fill="#16302B"/><rect x="169.70" y="339.39" width="12.12" height="12.12" fill="#16302B"/><rect x="206.06" y="339.39" width="12.12" height="12.12" fill="#16302B"/><rect x="254.55" y="339.39" width="12.12" height="12.12" fill="#16302B"/><rect x="278.79" y="339.39" width="12.12" height="12.12" fill="#16302B"/><rect x="290.91" y="339.39" width="12.12" height="12.12" fill="#16302B"/><rect x="303.03" y="339.39" width="12.12" height="12.12" fill="#16302B"/><rect x="315.15" y="339.39" width="12.12" height="12.12" fill="#16302B"/><rect x="327.27" y="339.39" width="12.12" height="12.12" fill="#16302B"/><rect x="339.39" y="339.39" width="12.12" height="12.12" fill="#16302B"/><rect x="0.00" y="351.52" width="12.12" height="12.12" fill="#16302B"/><rect x="24.24" y="351.52" width="12.12" height="12.12" fill="#16302B"/><rect x="36.36" y="351.52" width="12.12" height="12.12" fill="#16302B"/><rect x="48.48" y="351.52" width="12.12" height="12.12" fill="#16302B"/><rect x="72.73" y="351.52" width="12.12" height="12.12" fill="#16302B"/><rect x="145.45" y="351.52" width="12.12" height="12.12" fill="#16302B"/><rect x="169.70" y="351.52" width="12.12" height="12.12" fill="#16302B"/><rect x="278.79" y="351.52" width="12.12" height="12.12" fill="#16302B"/><rect x="303.03" y="351.52" width="12.12" height="12.12" fill="#16302B"/><rect x="327.27" y="351.52" width="12.12" height="12.12" fill="#16302B"/><rect x="339.39" y="351.52" width="12.12" height="12.12" fill="#16302B"/><rect x="351.52" y="351.52" width="12.12" height="12.12" fill="#16302B"/><rect x="387.88" y="351.52" width="12.12" height="12.12" fill="#16302B"/><rect x="0.00" y="363.64" width="12.12" height="12.12" fill="#16302B"/><rect x="24.24" y="363.64" width="12.12" height="12.12" fill="#16302B"/><rect x="36.36" y="363.64" width="12.12" height="12.12" fill="#16302B"/><rect x="48.48" y="363.64" width="12.12" height="12.12" fill="#16302B"/><rect x="72.73" y="363.64" width="12.12" height="12.12" fill="#16302B"/><rect x="96.97" y="363.64" width="12.12" height="12.12" fill="#16302B"/><rect x="109.09" y="363.64" width="12.12" height="12.12" fill="#16302B"/><rect x="121.21" y="363.64" width="12.12" height="12.12" fill="#16302B"/><rect x="133.33" y="363.64" width="12.12" height="12.12" fill="#16302B"/><rect x="181.82" y="363.64" width="12.12" height="12.12" fill="#16302B"/><rect x="206.06" y="363.64" width="12.12" height="12.12" fill="#16302B"/><rect x="230.30" y="363.64" width="12.12" height="12.12" fill="#16302B"/><rect x="254.55" y="363.64" width="12.12" height="12.12" fill="#16302B"/><rect x="290.91" y="363.64" width="12.12" height="12.12" fill="#16302B"/><rect x="303.03" y="363.64" width="12.12" height="12.12" fill="#16302B"/><rect x="327.27" y="363.64" width="12.12" height="12.12" fill="#16302B"/><rect x="339.39" y="363.64" width="12.12" height="12.12" fill="#16302B"/><rect x="351.52" y="363.64" width="12.12" height="12.12" fill="#16302B"/><rect x="363.64" y="363.64" width="12.12" height="12.12" fill="#16302B"/><rect x="375.76" y="363.64" width="12.12" height="12.12" fill="#16302B"/><rect x="387.88" y="363.64" width="12.12" height="12.12" fill="#16302B"/><rect x="0.00" y="375.76" width="12.12" height="12.12" fill="#16302B"/><rect x="72.73" y="375.76" width="12.12" height="12.12" fill="#16302B"/><rect x="109.09" y="375.76" width="12.12" height="12.12" fill="#16302B"/><rect x="121.21" y="375.76" width="12.12" height="12.12" fill="#16302B"/><rect x="145.45" y="375.76" width="12.12" height="12.12" fill="#16302B"/><rect x="157.58" y="375.76" width="12.12" height="12.12" fill="#16302B"/><rect x="169.70" y="375.76" width="12.12" height="12.12" fill="#16302B"/><rect x="218.18" y="375.76" width="12.12" height="12.12" fill="#16302B"/><rect x="266.67" y="375.76" width="12.12" height="12.12" fill="#16302B"/><rect x="290.91" y="375.76" width="12.12" height="12.12" fill="#16302B"/><rect x="315.15" y="375.76" width="12.12" height="12.12" fill="#16302B"/><rect x="327.27" y="375.76" width="12.12" height="12.12" fill="#16302B"/><rect x="339.39" y="375.76" width="12.12" height="12.12" fill="#16302B"/><rect x="351.52" y="375.76" width="12.12" height="12.12" fill="#16302B"/><rect x="0.00" y="387.88" width="12.12" height="12.12" fill="#16302B"/><rect x="12.12" y="387.88" width="12.12" height="12.12" fill="#16302B"/><rect x="24.24" y="387.88" width="12.12" height="12.12" fill="#16302B"/><rect x="36.36" y="387.88" width="12.12" height="12.12" fill="#16302B"/><rect x="48.48" y="387.88" width="12.12" height="12.12" fill="#16302B"/><rect x="60.61" y="387.88" width="12.12" height="12.12" fill="#16302B"/><rect x="72.73" y="387.88" width="12.12" height="12.12" fill="#16302B"/><rect x="96.97" y="387.88" width="12.12" height="12.12" fill="#16302B"/><rect x="121.21" y="387.88" width="12.12" height="12.12" fill="#16302B"/><rect x="145.45" y="387.88" width="12.12" height="12.12" fill="#16302B"/><rect x="181.82" y="387.88" width="12.12" height="12.12" fill="#16302B"/><rect x="193.94" y="387.88" width="12.12" height="12.12" fill="#16302B"/><rect x="230.30" y="387.88" width="12.12" height="12.12" fill="#16302B"/><rect x="242.42" y="387.88" width="12.12" height="12.12" fill="#16302B"/><rect x="290.91" y="387.88" width="12.12" height="12.12" fill="#16302B"/><rect x="315.15" y="387.88" width="12.12" height="12.12" fill="#16302B"/><rect x="327.27" y="387.88" width="12.12" height="12.12" fill="#16302B"/><rect x="339.39" y="387.88" width="12.12" height="12.12" fill="#16302B"/><rect x="351.52" y="387.88" width="12.12" height="12.12" fill="#16302B"/><rect x="387.88" y="387.88" width="12.12" height="12.12" fill="#16302B"/></svg>